<svg width="124" height="26" viewBox="0 0 124 26" fill="none" xmlns="http://www.w3.org/2000/svg">
<path d="M3.71014 3.84161H6.39439C8.84768 3.84161 9.92879 4.61083 9.92879 6.17337C9.92879 7.53125 8.84768 8.45326 6.67763 8.45326H3.71014V3.84161ZM0.458984 19.2056H7.03787C10.4953 19.2056 13.9527 17.9801 13.9527 14.0351C13.9527 11.7034 12.3051 9.91327 10.0091 9.65427V9.60035C11.8876 9.04192 13.1832 7.68444 13.1832 5.63537C13.1832 2.33135 10.3413 1.07764 7.58007 1.07764H0.458984V19.2056ZM3.71014 11.2172H6.83161C9.46316 11.2172 10.7061 11.8839 10.7061 13.7802C10.7061 16.1581 8.37835 16.4416 6.70192 16.4416H3.71014V11.2172Z" fill="#A8A8AF"/>
<path d="M17.6299 19.2051V0.649414" stroke="#A8A8AF" stroke-width="3.41861" stroke-miterlimit="10"/>
<path d="M24.3433 13.0615C24.3433 11.1411 25.7117 9.37596 27.9831 9.37596C30.2544 9.37596 31.6187 11.1415 31.6187 13.0615C31.6187 14.9815 30.2544 16.7475 27.9831 16.7475C25.7113 16.7475 24.3433 14.9819 24.3433 13.0615ZM21.2461 13.0615C21.2461 16.9281 24.2379 19.5115 27.9831 19.5115C31.7237 19.5115 34.72 16.9285 34.72 13.0615C34.72 9.19459 31.7241 6.60791 27.9831 6.60791C24.2379 6.6075 21.2461 9.19499 21.2461 13.0615Z" fill="#A8A8AF"/>
<path d="M39.2124 13.0615C39.2124 11.1411 40.5809 9.37596 42.8522 9.37596C45.1235 9.37596 46.4879 11.1415 46.4879 13.0615C46.4879 14.9815 45.1235 16.7475 42.8522 16.7475C40.5809 16.7475 39.2124 14.9819 39.2124 13.0615ZM36.1152 13.0615C36.1152 16.9281 39.1074 19.5115 42.8522 19.5115C46.5929 19.5115 49.5892 16.9285 49.5892 13.0615C49.5892 9.19459 46.5933 6.60791 42.8522 6.60791C39.107 6.6075 36.1152 9.19499 36.1152 13.0615Z" fill="#A8A8AF"/>
<path d="M51.4766 6.91398H54.4198V8.83642H54.4683C55.011 7.68361 56.1971 6.60474 58.2617 6.60474C60.1728 6.60474 61.4927 7.34577 62.1362 8.88462C63.039 7.32575 64.3548 6.60474 66.2091 6.60474C69.5125 6.60474 70.6751 8.93854 70.6751 11.8835V19.2052H67.5779V12.2409C67.5779 10.7062 67.1164 9.37442 65.2823 9.37442C63.3474 9.37442 62.6224 10.9611 62.6224 12.5461V19.2048H59.5293V11.8831C59.5293 10.3683 58.9097 9.37442 57.412 9.37442C55.3753 9.37442 54.5737 10.8549 54.5737 12.4958V19.2048H51.4766V6.91398Z" fill="#A8A8AF"/>
<path d="M83.4554 13.0607C83.4554 14.9832 82.091 16.7467 79.8156 16.7467C77.5439 16.7467 76.1758 14.9832 76.1758 13.0607C76.1758 11.1403 77.5439 9.37066 79.8156 9.37066C82.091 9.37066 83.4554 11.1403 83.4554 13.0607ZM73.184 19.2051H76.1272V17.3627H76.1758C77.0823 18.8432 78.7061 19.5103 80.4385 19.5103C84.2524 19.5103 86.5521 16.694 86.5521 13.0603C86.5521 9.42459 84.0989 6.60669 80.5645 6.60669C78.2441 6.60669 77.0016 7.67944 76.3578 8.47889H76.2808V0.649414H73.1836L73.184 19.2051Z" fill="#A8A8AF"/>
<path d="M91.0503 11.8323C91.2813 10.0627 92.4188 8.9119 94.2488 8.9119C96.1841 8.9119 97.3702 10.039 97.3986 11.8323H91.0503ZM100.496 14.1363V13.2927C100.496 9.01443 98.1479 6.60791 94.6901 6.60791C90.9412 6.60791 87.9531 9.19499 87.9531 13.0615C87.9531 16.9281 90.9412 19.5115 94.6901 19.5115C96.6456 19.5115 98.4835 18.8207 99.9248 17.0567L97.7062 15.3957C96.933 16.3382 95.9248 17.0567 94.378 17.0567C92.6497 17.0567 91.2524 15.9542 91.0503 14.1363H100.496Z" fill="#A8A8AF"/>
<path d="M102.512 6.91398H105.609V8.86052H105.662C106.334 7.45239 107.698 6.60474 109.326 6.60474C109.714 6.60474 110.075 6.68317 110.435 6.78734V9.75638C109.921 9.62974 109.427 9.52721 108.937 9.52721C106.022 9.52721 105.609 11.9615 105.609 12.6286V19.2052H102.512L102.512 6.91398Z" fill="#A8A8AF"/>
<path d="M117.363 9.37442C119.606 9.37442 121.026 10.8549 121.026 12.9856C121.026 15.0306 119.634 16.5932 117.338 16.5932C115.249 16.5932 113.698 14.9804 113.698 13.0338C113.698 10.8549 115.192 9.37442 117.363 9.37442ZM121.026 6.91398V8.75798H120.978C120.071 7.27142 118.444 6.60474 116.715 6.60474C112.898 6.60474 110.602 9.42263 110.602 13.0604C110.602 16.5393 113.055 19.3576 116.768 19.3576C118.318 19.3576 119.917 18.7709 120.825 17.5679H120.869V18.4658C120.869 20.896 119.946 22.5876 116.95 22.5876C115.221 22.5876 113.929 21.9446 112.691 20.8118L110.836 23.3262C112.585 24.8687 114.678 25.3512 116.978 25.3512C121.804 25.3512 123.97 22.5313 123.97 18.1038V6.91398H121.026Z" fill="#A8A8AF"/>
</svg>
