<svg width="107" height="26" viewBox="0 0 107 26" fill="none" xmlns="http://www.w3.org/2000/svg">
<path fill-rule="evenodd" clip-rule="evenodd" d="M5.63312 2.02512H0.265625V2.95377H1.97828V22.8761H0.265625V23.6646H5.70375C5.70375 23.6646 18.8753 24.418 18.8753 12.7134C18.8576 1.46442 5.63312 2.02512 5.63312 2.02512ZM5.49187 22.8761V2.95377C5.49187 2.95377 14.7967 2.58581 14.7967 12.7134C14.7967 22.5957 5.49187 22.8761 5.49187 22.8761ZM79.0998 7.29967H82.4898V8.54372C82.4898 8.54372 80.989 8.57876 80.6005 8.56124C80.1415 8.54371 79.4176 8.54371 79.0998 8.56124V18.9692C79.0998 18.9692 78.9232 22.2107 81.2891 22.2107C81.8718 22.1757 82.4191 21.9654 82.8429 21.5624V22.3334C82.4191 22.7539 81.2538 23.8928 79.5941 23.8928C75.3213 23.8928 75.6921 19.1094 75.6921 19.1094V8.54372H72.3727V7.29967H75.6921V3.69017L79.0291 2.04312V7.29967H79.0998ZM67.4478 9.55903C67.9598 9.76929 68.2953 10.2424 68.3483 10.7856L68.313 23.6991H71.7029V10.7856C71.7736 9.90947 71.5087 9.06842 70.9967 8.36755C69.1428 6.05467 66.3001 7.54402 65.4703 8.05215C64.9406 8.38507 64.4286 8.75303 63.9519 9.13851V7.26367H63.8812L60.5795 9.24364V23.6991H63.9872V11.0309C64.4462 10.4526 65.8587 8.84064 67.4478 9.55903ZM53.1643 7.12406C55.1594 7.12406 56.5896 7.52706 57.9668 9.01641C58.6311 9.74586 58.8542 10.9245 58.9529 11.4465L58.9529 11.4466C58.9775 11.5766 58.9944 11.6658 59.0085 11.6973V23.6822H55.6185V22.5783C54.6121 23.139 52.7229 23.9275 50.8337 23.9275C49.4504 23.9275 47.6733 23.5721 46.5651 22.4493C46.1031 22.7024 43.7747 23.91 41.4038 23.91C38.3317 23.91 32.3992 21.7022 32.3992 15.7798C32.3992 9.71729 37.1134 7.12406 40.3974 7.12406C41.3156 7.14158 42.216 7.3168 43.0812 7.61467L44.7056 11.3994L43.7168 11.8374C43.5932 11.4344 42.5515 8.54333 39.6559 8.54333C36.2306 8.54333 35.1712 13.3618 36.2306 17.2517C37.3429 21.0539 40.0973 22.3856 41.8452 22.4381C43.5743 22.4968 45.39 21.8067 45.9359 21.5801C45.6729 21.0644 45.5191 20.445 45.5191 19.7047C45.5191 14.7285 54.1354 11.2942 55.6008 10.7511C55.5832 10.4357 55.4243 8.70102 53.0583 8.70102C50.3923 8.70102 47.7791 12.3456 47.2671 13.1165L46.4196 12.7135L48.5913 8.45572C49.9509 7.57963 51.5399 7.12406 53.1643 7.12406ZM51.8048 22.2629C54.0294 22.333 55.0888 21.7548 55.5832 21.3167V12.0827C54.4002 12.5909 49.2799 14.9563 49.1387 19.3192C49.1034 20.5983 50.1627 22.2279 51.8048 22.2629ZM103.679 10.9436L105.674 8.876L105.635 8.9398C105.629 8.94868 105.624 8.95665 105.621 8.96361L105.635 8.9398C105.67 8.89208 105.752 8.81832 105.844 8.73645C106.034 8.56523 106.265 8.35853 106.186 8.28026C104.099 6.22657 101.738 7.67445 100.874 8.20405L100.836 8.22769C100.306 8.54308 99.7942 8.91104 99.2998 9.29652V7.42168H99.2292L95.9275 9.40165V23.8572H99.3175V11.1889C99.7765 10.6107 101.189 8.99865 102.778 9.71704C103.29 9.9273 103.626 10.4004 103.679 10.9436ZM95.0081 21.8241C93.8251 22.3147 92.5539 22.5425 91.2826 22.5075C89.5347 22.4549 86.9392 21.4036 85.8092 18.3022L86.9922 17.1633L94.602 10.3649C94.602 10.3649 94.3195 7.19341 89.5347 7.19341C85.7209 7.19341 81.8365 9.78664 81.8365 15.8492C81.8365 21.754 87.3453 23.9793 90.8412 23.9793C92.5186 23.9793 94.1782 23.5413 95.6261 22.6827L95.0081 21.8241ZM85.509 16.3223C84.8381 11.6615 86.6744 8.36738 89.1286 8.45499C90.594 8.49003 91.0708 10.0845 90.9472 11.0307C90.7706 12.3974 89.6406 13.4662 89.6406 13.4662L85.6326 17.0056C85.615 16.8917 85.5929 16.7778 85.5708 16.664L85.5707 16.6634C85.5487 16.5497 85.5267 16.436 85.509 16.3223ZM28.8504 22.316C30.1217 22.351 31.3929 22.1233 32.5759 21.6327L33.1938 22.4912C31.746 23.3498 30.0863 23.7878 28.409 23.7878C24.9131 23.7878 19.4043 21.5626 19.4043 15.6577C19.4043 9.59517 23.2887 7.00194 27.1024 7.00194C31.8873 7.00194 32.1698 10.1734 32.1698 10.1734L24.5599 16.9719L23.377 18.1108C24.507 21.2121 27.1024 22.2634 28.8504 22.316ZM26.714 8.24599C24.2598 8.15838 22.4235 11.4525 23.0945 16.1133C23.1298 16.3584 23.1651 16.586 23.2003 16.8136L23.2004 16.8142L27.226 13.2572C27.226 13.2572 28.356 12.1884 28.5326 10.8217C28.6562 9.87552 28.1795 8.28103 26.714 8.24599Z" fill="#A8A8AF"/>
</svg>
