<svg width="173" height="26" viewBox="0 0 173 26" fill="none" xmlns="http://www.w3.org/2000/svg">
<g clip-path="url(#clip0_649_392)">
<path fill-rule="evenodd" clip-rule="evenodd" d="M4.65634 17.7086C4.65634 18.6662 4.93276 18.885 6.70121 18.885V19.4868H0.539062V18.885C1.75485 18.885 2.16955 18.7755 2.16955 17.7361V7.96995C2.16955 6.93035 1.75485 6.82086 0.539062 6.82086V6.21906H10.8739L10.9293 9.85741H10.4318C10.1554 7.12192 9.46458 6.87585 6.89472 6.87585H4.62881V12.2923H6.45249C8.19341 12.2923 8.30401 12.0187 8.44214 10.6509H8.9396V14.6176H8.44214C8.30401 13.2498 8.19341 13.0035 6.45249 13.0035H4.62881V17.7088H4.6565L4.65634 17.7086ZM12.2003 19.4868V18.885C13.4162 18.885 13.8307 18.7755 13.8307 17.7361V7.96995C13.8307 6.93035 13.4162 6.82086 12.2003 6.82086V6.21906H17.948V6.82102C16.7321 6.82102 16.3175 6.93051 16.3175 7.97011V17.7362C16.3175 18.7757 16.7321 18.8851 17.948 18.8851V19.4869H12.2001L12.2003 19.4868ZM30.9908 19.7056L21.8166 8.46225V17.6814C21.8166 18.7484 22.5626 18.9124 23.8339 18.9124V19.5144H18.9705V18.9124C20.2415 18.9124 20.9324 18.7484 20.9324 17.6814V7.45007C20.3521 6.84827 19.9375 6.82086 18.9705 6.82086V6.21906H23.2812L30.3 15.1646V8.02461C30.3 6.95776 29.554 6.79361 28.2828 6.79361V6.21906H33.1738V6.82102C31.9028 6.82102 31.2118 6.98518 31.2118 8.05219V19.7059H30.9908V19.7056ZM37.54 19.4868H32.7041V18.885C33.9752 18.885 34.5556 18.7208 34.97 17.6266L39.3361 6.08232H40.5519L45.2496 17.7086C45.6641 18.7482 45.8574 18.8576 46.8247 18.8576V19.4594H41.2152V18.8576C42.9284 18.8576 43.0942 18.7208 42.6795 17.7086L41.2981 14.1798H37.0977L35.8544 17.5992C35.4676 18.6388 36.0755 18.8576 37.5677 18.8576V19.4868H37.54ZM37.3465 13.4958H40.994L39.0874 8.7359L37.3465 13.4958ZM59.4254 19.7056L50.2788 8.46225V17.6814C50.2788 18.7484 51.0248 18.9124 52.296 18.9124V19.5144H47.543V18.9124C48.7037 18.9124 49.3945 18.7484 49.3945 17.6814V7.47748C48.7314 6.87569 48.234 6.82086 47.1288 6.82086V6.21906H51.7156L58.7344 15.1646V8.02461C58.7344 6.95776 57.9884 6.79361 56.7174 6.79361V6.21906H61.5809V6.82102C60.3097 6.82102 59.6189 6.98518 59.6189 8.05219V19.7059H59.4254V19.7056ZM72.9933 6.19181H73.325L73.5183 10.1583L73.021 10.1857C72.6894 7.91528 71.4736 6.71153 69.2352 6.71153C66.7483 6.71153 64.8692 8.81798 64.8692 12.0459C64.8692 16.1767 67.4943 18.5293 70.2575 18.5293C71.4459 18.5293 72.5236 18.2011 73.5735 17.0796L73.9605 17.4624C73.1038 18.6662 71.4182 19.6784 69.1521 19.6784C65.781 19.6784 62.3546 17.1615 62.3546 12.9486C62.3544 8.87264 65.4769 6.00024 69.2629 6.00024C71.059 6.00024 71.9986 6.76619 72.4959 6.76619C72.7169 6.76619 72.8827 6.57479 72.9933 6.19181ZM75.0657 19.4868V18.885C76.2817 18.885 76.6962 18.7755 76.6962 17.7361V7.96995C76.6962 6.93035 76.2817 6.82086 75.0657 6.82086V6.21906H80.8135V6.82102C79.5977 6.82102 79.183 6.93051 79.183 7.97011V17.7362C79.183 18.7757 79.5977 18.8851 80.8135 18.8851V19.4869L75.0657 19.4868ZM86.2296 19.4868H81.7253V18.885C82.7202 18.885 83.2452 18.7208 83.6598 17.6266L88.0258 6.08232H89.2415L93.9392 17.7086C94.3537 18.7482 94.5472 18.8576 95.5143 18.8576V19.4594H89.905V18.8576C91.6182 18.8576 91.784 18.7208 91.3695 17.7086L89.9879 14.1798H85.7877L84.5441 17.5992C84.1572 18.6388 84.7653 18.8576 86.2575 18.8576V19.4868H86.2296ZM86.0361 13.4958H89.6838L87.8047 8.7359L86.0361 13.4958ZM96.4538 19.4868V18.885C97.6698 18.885 98.0843 18.7755 98.0843 17.7361V7.96995C98.0843 6.93035 97.6698 6.82086 96.4538 6.82086V6.21906H102.174V6.82102C100.958 6.82102 100.571 6.93051 100.571 7.97011V17.8183C100.571 18.6936 101.013 18.8031 101.732 18.8031H102.423C105.02 18.8031 105.849 18.4201 106.568 15.493L107.065 15.5477L106.65 19.4597H96.4538V19.4871V19.4868ZM124.308 6.21906L124.363 10.0762H123.866C123.59 7.23125 122.899 6.87585 120.329 6.87585H119.5V17.7088C119.5 18.7484 119.887 18.8851 121.545 18.8851V19.4869H114.968V18.8851C116.626 18.8851 117.041 18.721 117.041 17.7088V6.87569H116.212C113.642 6.87569 112.951 7.23125 112.675 10.0762H112.177L112.232 6.21906H124.308ZM125.607 19.4869V18.885C126.823 18.885 127.237 18.7755 127.237 17.7361V7.96995C127.237 6.93035 126.823 6.82086 125.607 6.82086V6.21906H131.355V6.82102C130.139 6.82102 129.724 6.93051 129.724 7.97011V17.7362C129.724 18.7757 130.139 18.8851 131.355 18.8851V19.4869H125.607ZM148.653 6.2189V6.82102C147.437 6.82102 146.912 6.87585 147.023 7.9427L148.073 17.7909C148.183 18.8031 148.57 18.9124 149.786 18.9124V19.5144H144.066V18.9124C145.254 18.9124 145.669 18.8031 145.586 17.7909L144.508 7.44991L140.28 19.7329H140.114L135.969 7.42282L134.974 17.7633C134.864 18.8029 135.582 18.9122 136.798 18.9122V19.5142H132.322V18.9122C133.537 18.9122 133.952 18.7208 134.035 17.7633L135.085 7.91512C135.196 6.87569 134.67 6.79361 133.454 6.79361V6.21906H138.152L140.971 15.2739L144.01 6.21906H148.653L148.653 6.2189ZM159.347 14.6173H158.85C158.712 13.2495 158.601 13.0031 156.86 13.0031H154.815V17.818C154.815 18.6933 155.257 18.8027 155.976 18.8027H157.081C159.679 18.8027 160.508 18.4198 161.226 15.4927L161.723 15.5474L161.254 19.4594H150.698V18.8574C151.914 18.8574 152.328 18.7481 152.328 17.7085V7.96995C152.328 6.93035 151.914 6.82086 150.698 6.82086V6.21906H160.839L160.895 9.5291H160.397C160.093 7.17642 159.485 6.90294 156.832 6.90294H154.843V12.292H156.888C158.628 12.292 158.739 12.0185 158.877 10.6508H159.375V14.6174H159.347L159.347 14.6173ZM170.014 16.751C170.014 15.5474 169.24 14.9456 167.913 14.2069L165.786 13.1126C164.183 12.2646 163.244 11.3345 163.244 9.66584C163.243 7.58697 165.04 6.00024 167.388 6.00024C168.991 6.00024 169.82 6.76619 170.29 6.76619C170.594 6.76619 170.732 6.57479 170.87 6.19181H171.257L171.45 9.91224L170.953 9.93965C170.677 8.13394 169.378 6.73878 167.554 6.73878C166.172 6.73878 165.261 7.55956 165.261 8.70848C165.261 9.9669 166.228 10.4866 167.305 11.0612L169.129 12.0185C170.843 12.9486 172.058 13.8787 172.058 15.6569C172.058 18.0095 170.013 19.6784 167.471 19.6784C165.675 19.6784 164.791 18.8302 164.321 18.8302C164.017 18.8302 163.851 19.1038 163.713 19.5142H163.326L163.05 15.5748L163.547 15.5201C163.934 17.9821 165.647 18.9943 167.361 18.9943C168.798 18.9669 170.013 18.3379 170.013 16.7513L170.014 16.751Z" fill="#A8A8AF"/>
</g>
<defs>
<clipPath id="clip0_649_392">
<rect width="171.682" height="26" fill="white" transform="translate(0.394531)"/>
</clipPath>
</defs>
</svg>
