<svg width="88" height="26" viewBox="0 0 88 26" fill="none" xmlns="http://www.w3.org/2000/svg">
<g clip-path="url(#clip0_649_410)">
<path d="M49.9213 9.15557C49.9213 6.57779 49.9652 4.17779 50.0969 1.95557L43.3774 3.24446V3.86668L44.0362 3.95557C44.5193 4.00001 44.8267 4.17779 45.0024 4.44446C45.1781 4.75557 45.3098 5.20001 45.3976 5.86668C45.4855 7.15557 45.5733 10.0889 45.5294 14.7111C45.5294 19.2889 45.4855 22.1778 45.3976 23.2889C47.8132 23.8222 49.7017 24.0445 51.1071 24.0445C53.7422 24.0445 55.8064 23.2889 57.2996 21.7333C58.7928 20.2222 59.5834 18.0889 59.5834 15.4667C59.5834 13.3778 59.0124 11.6445 57.8705 10.2667C56.7287 8.8889 55.2793 8.22223 53.5665 8.22223C52.4246 8.22223 51.2388 8.53334 49.9213 9.15557ZM50.053 22.8445C49.9652 21.4222 49.8773 17.1556 49.8773 10.1778C50.2726 10.0445 50.7996 9.95557 51.4584 9.95557C52.5125 9.95557 53.3469 10.4889 53.9618 11.6C54.5766 12.7111 54.8841 14.0445 54.8841 15.7333C54.8841 17.8222 54.5327 19.5111 53.83 20.9333C53.1273 22.3111 52.249 23.0222 51.151 23.0222C50.7996 22.9333 50.4483 22.8889 50.053 22.8445ZM18.1681 2.40001H0.600586V3.2889L1.52288 3.37779C2.22558 3.51112 2.70868 3.77779 3.01611 4.17779C3.32354 4.62223 3.49922 5.33334 3.54314 6.31112C3.89449 11.1111 3.89449 15.6 3.54314 19.7333C3.4553 20.7111 3.27963 21.4222 3.01611 21.8667C2.70868 22.3111 2.22558 22.5778 1.52288 22.6667L0.600586 22.8V23.6889H11.9316V22.8L10.7458 22.7111C10.4564 22.6866 10.175 22.6031 9.91836 22.4656C9.66173 22.3281 9.43526 22.1395 9.25257 21.9111C8.94514 21.4667 8.76946 20.7556 8.72554 19.7778C8.59379 18 8.50595 15.9556 8.50595 13.6889L10.8776 13.7333C12.1512 13.7778 13.0296 14.7556 13.4688 16.7111H14.3471V9.46668H13.4688C13.0296 11.3778 12.1951 12.3556 10.8776 12.4L8.50595 12.4445C8.50595 8.44446 8.59379 5.60001 8.72554 3.86668H12.1951C14.6546 3.86668 16.3235 5.46668 17.2897 8.66668L18.3437 8.35557L18.1681 2.40001ZM16.1039 16.0889C16.1039 18.4 16.7627 20.3111 18.0363 21.8222C19.3099 23.3333 21.1984 24.0445 23.5701 24.0445C25.9417 24.0445 27.8741 23.2889 29.2795 21.7333C30.6849 20.2222 31.3437 18.3111 31.3437 16C31.3437 13.6889 30.6849 11.7778 29.4112 10.2667C28.1376 8.75557 26.2491 8.04446 23.8775 8.04446C21.5059 8.04446 19.5735 8.80001 18.1681 10.3556C16.7627 11.8667 16.1039 13.7778 16.1039 16.0889ZM25.8977 11.0222C26.4248 12.3111 26.6444 14 26.6444 16.0445C26.6444 20.7556 25.6782 23.0667 23.7896 23.0667C22.8234 23.0667 22.0768 22.4 21.5498 21.0667C21.0228 19.7333 20.8032 18.0445 20.8032 16.0445C20.8032 11.3778 21.7694 9.06668 23.6579 9.06668C24.6241 9.02223 25.3707 9.6889 25.8977 11.0222ZM63.009 21.8222C64.4584 23.2889 66.3029 24.0445 68.4989 24.0445C69.8604 24.0445 71.0462 23.7778 72.1002 23.2C73.1543 22.6667 73.9887 22 74.5596 21.2L74.1205 20.6667C73.1543 21.4222 72.0563 21.7778 70.7826 21.7778C69.0259 21.7778 67.6644 21.2 66.7421 20C65.7759 18.8 65.3367 17.2889 65.4246 15.3333H74.8232C74.8232 13.2 74.2961 11.4667 73.1982 10.0889C72.1002 8.75557 70.563 8.0889 68.5867 8.0889C66.1273 8.0889 64.2388 8.8889 62.8773 10.4445C61.5158 12 60.857 13.9111 60.857 16.1778C60.857 18.4889 61.5597 20.3556 63.009 21.8222ZM66.259 10.6667C66.7421 9.60001 67.357 9.06668 68.1914 9.06668C69.509 9.06668 70.1678 10.7556 70.1678 14.1778L65.5124 14.2667C65.5563 12.9333 65.7759 11.7333 66.259 10.6667ZM86.6373 8.8889C85.4515 8.35557 83.9582 8.04446 82.1576 8.04446C80.313 8.04446 78.8637 8.53334 77.7657 9.46668C76.6677 10.4 76.0968 11.5556 76.0968 12.9333C76.0968 14.1333 76.4482 15.0667 77.1069 15.7333C77.7657 16.4 78.8198 16.9778 80.1812 17.4667C81.411 17.9111 82.2893 18.3556 82.7285 18.7556C83.1677 19.2 83.4312 19.6889 83.4312 20.3556C83.4312 20.9778 83.2116 21.5556 82.7285 22C82.2893 22.4889 81.6745 22.7111 80.8839 22.7111C78.9515 22.7111 77.5022 21.2889 76.4921 18.4445L75.7455 18.6667L75.9211 23.1111C77.5022 23.7333 79.2589 24.0445 81.1914 24.0445C83.2116 24.0445 84.7488 23.6 85.8907 22.6667C87.0326 21.7778 87.6035 20.4889 87.6035 18.8889C87.6035 17.8222 87.34 16.9333 86.769 16.2667C86.1981 15.6 85.2758 15.0222 83.9583 14.4889C82.5089 13.9556 81.4988 13.4667 80.9718 13.0222C80.4448 12.5778 80.1812 12.0445 80.1812 11.3778C80.1812 10.7111 80.3569 10.1778 80.7522 9.73334C81.1475 9.2889 81.6306 9.11112 82.2454 9.11112C84.0022 9.11112 85.2758 10.4 86.0663 12.9333L86.813 12.7111L86.6373 8.8889ZM44.3875 8.4889C43.7727 8.17779 43.1139 8.04446 42.3673 8.04446C41.6206 8.04446 40.874 8.35557 40.0396 8.97779C39.2051 9.60001 38.5902 10.4445 38.1071 11.6L38.1511 8.04446L31.4754 9.37779V10L32.1342 10.0445C32.9687 10.1333 33.4518 10.8 33.5396 12C33.8031 14.7556 33.8031 17.6889 33.5396 20.8C33.4518 22 32.9687 22.6222 32.1342 22.7556L31.4754 22.8445V23.6889H40.7862V22.8445L39.6004 22.7556C38.7659 22.6667 38.2828 22 38.195 20.8C37.9315 18.2222 37.8876 15.4667 38.1071 12.6222C38.3707 12.1778 38.9416 11.9111 39.82 11.8222C40.6983 11.7333 41.7085 12 42.7625 12.6222L44.3875 8.4889Z" fill="#A8A8AF"/>
</g>
<defs>
<clipPath id="clip0_649_410">
<rect width="87.8374" height="26" fill="white" transform="translate(0.162109)"/>
</clipPath>
</defs>
</svg>
