<svg width="80" height="81" viewBox="0 0 80 81" fill="none" xmlns="http://www.w3.org/2000/svg">
<path d="M40 8C33.5721 8 27.2886 9.90609 21.944 13.4772C16.5994 17.0484 12.4338 22.1242 9.97393 28.0628C7.51408 34.0014 6.87047 40.5361 8.12449 46.8404C9.37851 53.1448 12.4738 58.9358 17.019 63.481C21.5643 68.0262 27.3552 71.1215 33.6596 72.3755C39.964 73.6295 46.4986 72.9859 52.4372 70.5261C58.3758 68.0662 63.4516 63.9006 67.0228 58.556C70.5939 53.2114 72.5 46.9279 72.5 40.5C72.4909 31.8833 69.0639 23.622 62.9709 17.5291C56.878 11.4361 48.6168 8.0091 40 8ZM52.6719 42.5563L36.4219 53.8063C36.0467 54.0657 35.6078 54.2175 35.1525 54.2453C34.6973 54.2731 34.2431 54.1759 33.8391 53.9641C33.4352 53.7523 33.0969 53.4341 32.8608 53.0438C32.6248 52.6535 32.5 52.2061 32.5 51.75V29.25C32.5 28.7939 32.6248 28.3465 32.8608 27.9562C33.0969 27.5659 33.4352 27.2477 33.8391 27.0359C34.2431 26.8241 34.6973 26.7269 35.1525 26.7547C35.6078 26.7825 36.0467 26.9343 36.4219 27.1937L52.6719 38.4437C53.0045 38.6737 53.2763 38.981 53.4641 39.3391C53.6519 39.6973 53.75 40.0956 53.75 40.5C53.75 40.9044 53.6519 41.3027 53.4641 41.6609C53.2763 42.019 53.0045 42.3263 52.6719 42.5563Z" fill="#A0A0A0" fill-opacity="0.25"/>
<path fill-rule="evenodd" clip-rule="evenodd" d="M36.4219 53.8062L52.6719 42.5562C53.0045 42.3262 53.2763 42.019 53.4641 41.6608C53.6519 41.3027 53.75 40.9044 53.75 40.5C53.75 40.0956 53.6519 39.6973 53.4641 39.3391C53.2763 38.981 53.0045 38.6737 52.6719 38.4437L36.4219 27.1937C36.0467 26.9343 35.6078 26.7825 35.1525 26.7547C34.6973 26.7268 34.2431 26.8241 33.8391 27.0359C33.4352 27.2477 33.0969 27.5659 32.8608 27.9562C32.6248 28.3465 32.5 28.7939 32.5 29.25V51.75C32.5 52.2061 32.6248 52.6535 32.8608 53.0438C33.0969 53.434 33.4352 53.7523 33.8391 53.9641C34.2431 54.1759 34.6973 54.2731 35.1525 54.2453C35.6078 54.2175 36.0467 54.0656 36.4219 53.8062Z" fill="white"/>
</svg>
