<svg width="139" height="26" viewBox="0 0 139 26" fill="none" xmlns="http://www.w3.org/2000/svg">
<g clip-path="url(#clip0_649_396)">
<path d="M5.98377 10.2903V1.86102H8.1287C11.8747 1.86102 13.1046 3.28083 13.1046 5.83492C13.1046 8.55921 12.2753 10.2903 8.4435 10.2903H5.98377ZM5.98377 11.0842H8.3002C11.4741 11.0842 12.4468 11.709 12.7322 14.5184L12.9613 16.9583C13.2185 19.5415 13.8481 20.5055 17.1936 20.5055C17.7656 20.5055 18.5667 20.4204 19.1094 20.2794V19.6546C16.8506 19.5975 16.2785 19.2011 15.9073 17.0434L15.6207 15.1141C15.2202 12.56 14.5341 10.9711 10.7024 10.6867V10.6016C14.6199 9.9208 16.107 8.1046 16.107 5.7487C16.107 3.19573 14.1054 1.06714 8.32841 1.06714H0.150391V1.69082C2.63832 1.77592 3.26792 2.28764 3.26792 3.33682V18.0366C3.26792 19.0869 2.63832 19.5695 0.150391 19.6546V20.3074H9.01555V19.6546C6.41253 19.5695 5.98377 19.144 5.98377 18.0366V11.0842ZM24.4283 20.5347C28.031 20.5347 30.8338 17.6962 30.8338 13.7234C30.8338 9.77859 28.1743 7.0543 24.4283 7.0543C20.7963 7.0543 17.9653 9.8928 17.9653 13.8376C17.9653 17.8104 20.6248 20.5347 24.4283 20.5347ZM24.5423 19.8248C22.2552 19.8248 20.6823 18.0937 20.6823 13.7805C20.6823 9.43819 22.0261 7.73621 24.285 7.73621C26.5732 7.73621 28.1461 9.43819 28.1461 13.7805C28.1461 18.0937 26.773 19.8248 24.5423 19.8248ZM32.1494 20.6478H32.6357L33.8362 19.144C35.2376 20.1372 36.6389 20.5347 38.1543 20.5347C41.9003 20.5347 44.2167 17.2136 44.2167 13.411C44.2167 9.7506 42.2151 7.0543 38.8403 7.0543C37.0677 7.0543 35.8096 7.73621 34.6373 8.89961V0.244141L29.9187 0.357233V0.952926C31.8064 1.01003 32.2351 1.43553 32.2351 2.37274V18.1508L32.1494 20.6478ZM37.9252 19.8248C36.5238 19.8248 35.2376 19.0298 34.6373 17.3558V9.6655C35.4948 8.7854 36.4674 8.24681 37.8113 8.24681C40.0701 8.24681 41.5573 10.4605 41.5573 13.5532C41.5573 17.4129 40.4131 19.8248 37.9252 19.8248ZM45.4172 20.6478H45.9035L47.104 19.144C48.5054 20.1372 49.9068 20.5347 51.4221 20.5347C55.1681 20.5347 57.4845 17.2136 57.4845 13.411C57.4845 9.7506 55.4829 7.0543 52.1092 7.0543C50.3355 7.0543 49.0775 7.73621 47.9052 8.89961V0.244141L43.1865 0.357233V0.952926C45.0742 1.01003 45.503 1.43553 45.503 2.37274V18.1508L45.4172 20.6478ZM51.1942 19.8248C49.7928 19.8248 48.5054 19.0298 47.9052 17.3558V9.6655C48.7627 8.7854 49.7353 8.24681 51.0791 8.24681C53.338 8.24681 54.8251 10.4605 54.8251 13.5532C54.8251 17.4129 53.681 19.8248 51.1942 19.8248ZM66.7785 10.2903V1.86102H68.9234C72.6694 1.86102 73.8981 3.28083 73.8981 5.83492C73.8981 8.55921 73.0688 10.2903 69.2371 10.2903H66.7785ZM66.7785 11.0842H69.0949C72.2688 11.0842 73.2414 11.709 73.5269 14.5184L73.756 16.9583C74.0132 19.5415 74.6417 20.5055 77.9883 20.5055C78.5592 20.5055 79.3603 20.4204 79.9041 20.2794V19.6546C77.6441 19.5975 77.0732 19.2011 76.7009 17.0434L76.4154 15.1141C76.0148 12.56 75.3288 10.9711 71.4971 10.6867V10.6016C75.4146 9.9208 76.9017 8.1046 76.9017 5.7487C76.9017 3.19573 74.8989 1.06714 69.1231 1.06714H60.9451V1.69082C63.433 1.77592 64.0615 2.28764 64.0615 3.33682V18.0366C64.0615 19.0869 63.433 19.5695 60.9451 19.6546V20.3074H69.8091V19.6546C67.2072 19.5695 66.7785 19.144 66.7785 18.0366V11.0842ZM85.0797 20.5347C87.9682 20.5347 89.4553 18.9167 90.5125 17.1576L90.0838 16.7881C88.9115 18.2359 87.7391 19.2291 86.023 19.2291C83.0781 19.2291 81.5334 16.7881 81.5334 13.6383V13.1277H90.3704C90.5983 10.0059 88.8257 7.0543 85.0797 7.0543C81.5628 7.0543 78.9033 10.0339 78.9033 13.9227C78.9033 17.6682 81.2186 20.5347 85.0797 20.5347ZM84.88 7.73621C87.0813 7.73621 87.9964 9.6655 87.7391 12.3898L81.5628 12.4749C81.7907 9.1829 83.0781 7.73621 84.88 7.73621ZM90.4268 25.7559H97.6333V25.1602C95.5166 25.1311 94.9164 24.9329 94.9164 24.0819V19.5695C95.9747 20.1372 97.0037 20.5055 98.4626 20.5055C102.151 20.5055 104.382 17.4129 104.382 13.4961C104.382 9.7506 102.523 7.0543 99.2062 7.0543C97.4336 7.0543 96.0887 7.90641 94.8599 9.0978V7.2245L90.4268 7.33871V7.93441C92.0854 7.9624 92.5142 8.5021 92.5142 9.3531V24.0819C92.5142 24.9329 92.0854 25.1311 90.4268 25.1602V25.7559ZM98.1196 19.7968C96.5186 19.7968 95.4602 19.0869 94.9164 17.3558V9.86369C95.7457 8.95559 96.7465 8.24681 98.1478 8.24681C100.407 8.24681 101.722 10.5165 101.722 13.6383C101.722 17.6111 100.293 19.7968 98.1196 19.7968ZM111.902 20.5347C115.506 20.5347 118.307 17.6962 118.307 13.7234C118.307 9.77859 115.648 7.0543 111.902 7.0543C108.271 7.0543 105.44 9.8928 105.44 13.8376C105.44 17.8104 108.1 20.5347 111.902 20.5347ZM112.017 19.8248C109.729 19.8248 108.156 18.0937 108.156 13.7805C108.156 9.43819 109.5 7.73621 111.76 7.73621C114.047 7.73621 115.62 9.43819 115.62 13.7805C115.62 18.0937 114.248 19.8248 112.017 19.8248ZM118.365 20.3074H125.256V19.6825C123.397 19.6546 122.855 19.4564 122.855 18.6334V10.6016C123.598 9.4102 124.456 8.55921 125.742 8.47411C125.685 8.6723 125.628 8.89961 125.628 9.0978C125.628 10.063 126.343 10.6016 127.201 10.6016C128.088 10.6016 128.688 9.9208 128.688 9.0127C128.688 8.0475 128.058 7.11141 126.601 7.11141C125.142 7.11141 123.826 8.2177 122.797 9.77859V7.2245L118.365 7.33871V7.93441C120.024 7.9624 120.452 8.5021 120.452 9.3531V18.6334C120.452 19.4564 120.024 19.6546 118.365 19.6825V20.3074ZM134.407 20.5906C136.122 20.5906 137.266 19.7117 138.267 17.8955L137.781 17.5551C137.037 18.6894 136.266 19.2862 135.465 19.2862C134.292 19.2862 133.75 18.6043 133.75 16.9583V8.3599H137.867V7.33871H133.75V2.62803L131.376 3.64922V7.25361L128.774 7.84931V8.38789H131.347V16.9874C131.347 19.3713 132.348 20.5906 134.407 20.5906Z" fill="#A8A8AF"/>
</g>
<defs>
<clipPath id="clip0_649_396">
<rect width="138.12" height="26" fill="white" transform="translate(0.148438)"/>
</clipPath>
</defs>
</svg>
