<svg width="169" height="26" viewBox="0 0 169 26" fill="none" xmlns="http://www.w3.org/2000/svg">
<g clip-path="url(#clip0_649_394)">
<path d="M13.2619 4.25142C13.2619 2.4288 11.5294 1.97314 10.1617 1.97314V2.24654C10.9823 2.24654 11.6206 2.51993 11.6206 3.15785C11.6206 3.52237 11.3471 4.06915 10.5264 4.06915C9.88815 4.06915 8.52041 3.70463 7.5174 3.34011C6.33203 2.88445 5.23784 2.51993 4.32601 2.51993C2.50236 2.51993 1.22581 3.88689 1.22581 5.43612C1.22581 6.80308 2.22881 7.25874 2.59354 7.441L2.68473 7.25874C2.50236 7.07647 2.22881 6.89421 2.22881 6.34743C2.22881 5.9829 2.59354 5.34499 3.50537 5.34499C4.32601 5.34499 5.4202 5.70951 6.87912 6.16516C8.15568 6.52969 9.52342 6.80308 10.2529 6.89421V9.71927L8.88514 10.904V10.9951L10.2529 12.1798V16.0984C9.52342 16.5541 8.70278 16.6452 7.97331 16.6452C6.60558 16.6452 5.4202 16.2807 4.4172 15.1871L8.15568 13.3645V7.07647L3.59655 9.08135C3.96128 7.89665 4.96429 7.07647 5.9673 6.52969L5.87612 6.2563C3.14064 6.98534 0.678711 9.53701 0.678711 12.6355C0.678711 16.2807 3.68773 19.0146 7.06149 19.0146C10.7088 19.0146 13.0795 16.0984 13.0795 13.0911H12.8972C12.3501 14.2758 11.5294 15.3694 10.5264 15.9162V12.1798L11.9853 10.9951V10.904L10.5264 9.71927V6.89421C11.8942 6.89421 13.2619 5.9829 13.2619 4.25142ZM5.32902 14.2758L4.23483 14.8226C3.59655 14.0024 3.23182 12.9088 3.23182 11.3596C3.23182 10.7217 3.23182 9.99266 3.41419 9.44588L5.32902 8.6257V14.2758ZM14.9944 16.3718L13.809 17.2831L13.9914 17.4654L14.5385 17.0097L16.5445 18.8324L19.2799 17.0097L19.1888 16.8275L18.4593 17.2831L17.5475 16.3718V10.1749L18.2769 9.62814L19.827 10.904V16.463C19.827 19.9259 19.0976 20.4727 17.5475 21.0195V21.2929C20.1006 21.384 22.4713 20.5638 22.4713 16.0984V10.0838L23.292 9.44588L23.1096 9.26361L22.3802 9.8104L20.1006 7.89665L17.5475 9.8104V2.33767H17.3651L14.1737 4.52481V4.70707C14.5385 4.88933 15.0856 5.07159 15.0856 6.07403L14.9944 16.3718ZM31.6808 15.3694L29.4012 17.1009L27.1216 15.2783V14.1847L31.4072 11.2685V11.1774L29.2188 7.89665L24.4774 10.4483V16.463L23.5655 17.192L23.7479 17.3743L24.5685 16.7363L27.6687 19.0146L31.772 15.7339L31.6808 15.3694ZM27.1216 13.8202V9.35475L27.304 9.26361L29.31 12.4532L27.1216 13.8202ZM49.0966 3.43124C49.0966 3.15785 49.0055 2.88445 48.9143 2.61106H48.7319C48.4584 3.34011 48.0936 3.70463 47.1818 3.70463C46.3612 3.70463 45.8141 3.24898 45.4493 2.88445L42.805 5.89177L42.9874 6.07403L43.8992 5.25386C44.4463 5.70951 44.9022 6.07403 46.1788 6.16516V13.729L40.799 4.52481C40.3431 3.79576 39.7048 2.79332 38.4283 2.79332C36.9694 2.79332 35.6928 4.06915 35.8752 6.07403H36.1487C36.2399 5.52725 36.5135 4.88933 37.1517 4.88933C37.6076 4.88933 38.0636 5.34499 38.3371 5.80064V8.80796C36.6958 8.80796 35.6016 9.53701 35.6016 10.904C35.6016 11.633 35.9664 12.7266 37.0605 13V12.8177C36.8782 12.6355 36.787 12.4532 36.787 12.1798C36.787 11.7241 37.1517 11.3596 37.79 11.3596H38.2459V15.1871C36.3311 15.1871 34.781 16.2807 34.781 18.1033C34.781 19.8348 36.2399 20.655 37.8812 20.5638V20.3816C36.8782 20.2905 36.4223 19.8348 36.4223 19.1969C36.4223 18.3767 36.9694 18.0122 37.6988 18.0122C38.4283 18.0122 39.0666 18.4678 39.5225 19.0146L42.1668 16.0984L41.9844 15.9162L41.3461 16.6452C40.3431 15.7339 39.796 15.4605 38.6106 15.2783V6.16516L45.9053 18.9235H46.4523V6.16516C47.8201 6.07403 49.0966 4.98046 49.0966 3.43124ZM55.753 15.3694L53.4734 17.1009L51.1938 15.2783V14.1847L55.4794 11.2685V11.1774L53.291 7.89665L48.5495 10.4483V16.463L47.6377 17.192L47.8201 17.3743L48.6407 16.7363L51.7409 19.0146L55.8442 15.7339L55.753 15.3694ZM51.1938 13.8202V9.35475L51.3762 9.26361L53.3822 12.4532L51.1938 13.8202ZM70.6157 8.89909L69.9774 9.35475L68.245 7.89665L66.239 9.71927L67.0596 10.5394V17.3743L64.8712 16.0073V10.3572L65.6007 9.90153L63.5035 7.89665L61.4975 9.71927L62.3181 10.5394V17.1009L62.0446 17.2831L60.1297 15.9162V10.4483C60.1297 9.17248 59.4915 8.80796 58.762 8.35231C58.1237 7.89665 57.759 7.62326 57.759 6.98534C57.759 6.43856 58.3061 6.16516 58.5796 5.9829V5.80064C57.8502 5.80064 55.9353 6.52969 55.9353 8.26118C55.9353 9.17248 56.3912 9.53701 56.8472 9.99266C57.3031 10.4483 57.759 10.8128 57.759 11.633V16.9186L56.756 17.6477L56.9383 17.8299L57.8502 17.1009L59.9474 18.9235L62.2269 17.3743L64.78 18.9235L69.6127 16.0984V9.99266L70.7981 9.08135L70.6157 8.89909ZM87.5757 3.88689L86.6638 4.70707L84.6578 2.88445L81.6488 5.07159V3.06672H81.3753L81.4664 17.8299C81.1929 17.8299 80.3723 17.6477 79.734 17.4654L79.5516 5.16273C79.5516 4.25142 78.9133 2.97558 77.272 2.97558C75.6308 2.97558 74.5366 4.25142 74.5366 5.52725H74.8101C74.9013 4.98046 75.1749 4.52481 75.7219 4.52481C76.269 4.52481 76.725 4.88933 76.725 6.07403V9.62814C75.0837 9.71927 74.0807 10.6306 74.0807 11.8153C74.0807 12.5443 74.4454 13.6379 75.5396 13.6379V13.4556C75.1748 13.2734 75.0837 13 75.0837 12.8177C75.0837 12.2709 75.5396 12.0887 76.269 12.0887H76.6338V17.7388C75.266 18.1944 74.7189 19.1969 74.7189 20.2905C74.7189 21.8397 75.9043 22.9332 77.728 22.9332C79.0045 22.9332 80.0987 22.751 81.1929 22.4776C82.1047 22.2953 83.2901 22.0219 83.8372 22.0219C84.5667 22.0219 84.8402 22.3865 84.8402 22.8421C84.8402 23.48 84.5667 23.7534 84.2019 23.8446V24.0268C85.6608 23.7534 86.5727 22.8421 86.5727 21.4752C86.5727 20.1082 85.2049 19.288 83.746 19.288C83.0165 19.288 81.4664 19.5614 80.3723 19.7437C79.0957 20.0171 77.8191 20.1993 77.4544 20.1993C76.8161 20.1993 76.0867 19.9259 76.0867 19.0146C76.0867 18.2856 76.725 17.6477 78.2751 17.6477C79.0957 17.6477 80.0987 17.7388 81.1017 18.0122C82.1959 18.2856 83.1989 18.559 84.1107 18.559C85.4785 18.559 86.6638 18.1033 86.6638 16.1896V4.98046L87.758 4.06915L87.5757 3.88689ZM83.8372 9.44588C83.5636 9.71927 83.1989 9.99266 82.743 9.99266C82.2871 9.99266 81.8312 9.71927 81.6488 9.44588V5.43612L82.5606 4.7982L83.8372 5.9829V9.44588ZM83.8372 12.1798C83.6548 11.9975 83.1989 11.7241 82.743 11.7241C82.2871 11.7241 81.8312 11.9975 81.6488 12.1798V9.8104C81.8312 9.99266 82.2871 10.2661 82.743 10.2661C83.1989 10.2661 83.6548 9.99266 83.8372 9.8104V12.1798ZM83.8372 16.463C83.8372 17.192 83.3813 17.921 82.3783 17.921H81.6488V12.5443C81.8312 12.3621 82.2871 12.0887 82.743 12.0887C83.1989 12.0887 83.5636 12.3621 83.8372 12.5443V16.463ZM96.3292 9.99266L93.4114 7.89665L88.9434 10.4483V16.3718L88.0316 17.1009L88.1228 17.2831L88.8522 16.7363L91.7701 18.9235L96.3292 16.1896V9.99266ZM91.4053 15.7339V9.17248L93.6849 10.8128V17.2831L91.4053 15.7339ZM104.992 8.07891H104.809C104.536 8.26117 104.262 8.44344 103.989 8.44344C103.624 8.44344 103.168 8.26118 102.986 7.98778H102.803L101.253 9.71927L99.7029 7.98778L96.9675 9.8104L97.0587 9.99266L97.7881 9.53701L98.6999 10.5394V16.2807L97.5146 17.192L97.6969 17.3743L98.244 16.9186L100.432 18.7412L103.259 16.8275L103.168 16.6452L102.347 17.1009L101.253 16.1896V9.8104C101.709 10.2661 102.256 10.7217 102.894 10.7217C104.171 10.8128 104.9 9.53701 104.992 8.07891ZM115.933 16.8275L112.833 18.9235L108.639 12.5443L111.648 7.89665H111.83C112.195 8.26118 112.742 8.6257 113.38 8.6257C114.019 8.6257 114.475 8.26118 114.748 7.89665H114.93C114.839 9.71927 113.563 10.8128 112.651 10.8128C111.739 10.8128 111.283 10.3572 110.736 10.0838L110.462 10.5394L115.022 17.2831L115.933 16.7363V16.8275ZM105.903 16.3718L104.718 17.2831L104.9 17.4654L105.447 17.0097L107.453 18.8324L110.189 17.0097L110.007 16.8275L109.277 17.2831L108.365 16.3718V2.33767H108.274L104.992 4.52481V4.70707C105.356 4.88933 105.903 4.98046 105.903 6.07403V16.3718ZM131.07 4.25142C131.07 2.4288 129.337 1.97314 127.97 1.97314V2.24654C128.79 2.24654 129.428 2.51993 129.428 3.15785C129.428 3.52237 129.155 4.06915 128.334 4.06915C127.696 4.06915 126.328 3.70463 125.325 3.34011C124.14 2.97558 123.046 2.61106 122.134 2.61106C120.31 2.61106 119.034 3.97802 119.034 5.52725C119.034 6.89421 120.037 7.34987 120.401 7.53213L120.493 7.34987C120.219 7.1676 119.945 6.98534 119.945 6.43856C119.945 6.07403 120.31 5.43612 121.222 5.43612C122.043 5.43612 123.137 5.80064 124.596 6.2563C125.872 6.62082 127.24 6.89421 127.97 6.98534V9.8104L126.602 10.9951V11.0862L127.97 12.2709V16.1896C127.24 16.6452 126.419 16.7363 125.69 16.7363C124.322 16.7363 123.137 16.3718 122.134 15.2783L125.872 13.4556V7.07647L121.313 9.08135C121.769 7.89665 122.772 7.07647 123.684 6.43856L123.593 6.2563C120.857 6.98534 118.395 9.44588 118.395 12.5443C118.395 16.1896 121.404 18.9235 124.778 18.9235C128.425 18.9235 130.796 16.0073 130.796 13H130.614C130.067 14.1847 129.246 15.2783 128.243 15.825V12.0887L129.702 10.904V10.8128L128.334 9.62814V6.89421C129.702 6.89421 131.07 5.9829 131.07 4.25142ZM123.137 14.2758L122.043 14.8226C121.404 14.0024 121.04 12.9088 121.04 11.3596C121.04 10.7217 121.131 9.99266 121.313 9.44588L123.228 8.6257L123.137 14.2758ZM134.261 3.34011H134.17L132.346 4.88933V4.98046L133.896 6.71195H134.079L135.902 5.16273V5.07159L134.261 3.34011ZM136.997 16.8275L136.267 17.2831L135.355 16.3718V10.0838L136.267 9.44588L136.085 9.26361L135.447 9.8104L133.805 7.89665L131.161 9.71927L131.343 9.99266L131.982 9.53701L132.802 10.5394V16.463L131.617 17.3743L131.708 17.5565L132.346 17.1009L134.352 18.9235L137.088 17.1009L136.997 16.8275ZM152.224 16.7363L151.586 17.192L150.583 16.2807V10.0838L151.495 9.35475L151.312 9.17248L150.583 9.8104L148.486 7.89665L145.75 9.8104L143.653 7.89665L141.1 9.8104L139.459 7.89665L136.814 9.71927L136.905 9.99266L137.544 9.53701L138.456 10.5394V16.463L137.726 17.192L139.823 18.9235L141.829 17.1009L141.009 16.2807V10.0838L141.829 9.53701L143.197 10.8128V16.2807L142.468 17.0097L144.565 18.7412L146.571 16.9186L145.75 16.0984V10.0838L146.48 9.62814L147.939 10.904V16.3718L147.3 17.0097L149.397 18.9235L152.224 17.0097V16.7363ZM160.157 15.3694L157.877 17.1009L155.598 15.2783V14.1847L159.883 11.2685V11.1774L157.695 7.89665L152.954 10.4483V16.6452L156.145 18.9235L160.248 15.6428L160.157 15.3694ZM155.598 13.8202V9.35475L155.78 9.26361L157.786 12.4532L155.598 13.8202ZM168.455 13L166.722 11.633C167.908 10.6306 168.363 9.26361 168.363 8.35231V7.80552H168.181C167.999 8.26118 167.634 8.71683 166.904 8.71683C166.175 8.71683 165.719 8.35231 165.263 7.80552L161.16 10.0838V13.3645L162.71 14.5492C161.16 15.9162 160.886 16.8275 160.886 17.5565C160.886 18.4678 161.342 19.1057 162.072 19.3791L162.163 19.1969C161.981 19.0146 161.798 18.9235 161.798 18.4678C161.798 18.1944 162.163 17.7388 162.892 17.7388C163.804 17.7388 164.351 18.3767 164.625 18.6501L168.546 16.2807V13H168.455ZM167.452 10.2661C166.813 11.3596 165.446 12.4532 164.625 13L163.622 12.1798V8.99022C163.987 9.90153 164.99 10.6306 165.993 10.6306C166.631 10.6306 166.996 10.5394 167.452 10.2661ZM165.901 17.5565C165.446 16.5541 164.351 15.825 163.257 15.825C162.984 15.825 162.254 15.825 161.525 16.2807C161.981 15.5516 163.166 14.2758 164.716 13.3645L165.81 14.2758L165.901 17.5565Z" fill="#A8A8AF"/>
</g>
<defs>
<clipPath id="clip0_649_394">
<rect width="168.688" height="26" fill="white" transform="translate(0.268555)"/>
</clipPath>
</defs>
</svg>
