<svg width="130" height="26" viewBox="0 0 130 26" fill="none" xmlns="http://www.w3.org/2000/svg">
<path d="M11.6382 23.8544H10.3044L7.52931 14.0462L5.46413 23.8544H3.61407L0 1.84058H3.09777L5.16296 15.6155L6.81941 1.84058H8.47585L10.2184 15.6155L11.9608 1.84058H15.0586L11.6382 23.8544ZM15.9621 23.8544V5.58946H18.9308V23.8326H15.9621V23.8544ZM27.6864 23.8544L23.5775 14.5693V23.7454H20.6949V5.69844H22.1362L26.245 14.6565V5.58946H29.1277V23.8326H27.6864V23.8544ZM30.7841 23.8544V5.58946H37.582V8.81524H33.7743V13H37.0657V16.1386H33.7743V20.8247H37.582V24.0505H30.7841V23.8544ZM41.1746 23.8544V1.84058H47.9725V5.06636H44.1648V11.0166H47.4562V14.1552H44.1648V20.7158H47.9725V23.9415H41.1746V23.8544ZM56.7065 23.8544L52.5976 14.5693V23.7454H49.715V5.69844H51.1563L55.2651 14.6565V5.58946H58.1478V23.8326H56.7065V23.8544ZM65.0533 8.83704V23.8544H62.063V8.83704H59.6967V5.58946H67.4196V8.81524H65.0533V8.83704ZM74.4111 23.8544V16.2476H71.9372V23.8544H68.947V5.58946H71.9372V13H74.5187V5.58946H77.5089V23.8326H74.4111V23.8544ZM83.5754 24.1595C81.209 24.1595 79.4665 22.5902 79.4665 19.0593V5.58946H82.4567V19.2554C82.4567 20.4106 82.8655 21.0209 83.6829 21.0209C84.5004 21.0209 84.8231 20.3888 84.8231 19.2554V5.58946H87.8133V18.9285C87.7918 22.6992 85.9417 24.1595 83.5754 24.1595ZM93.1483 24.1595C91.9221 24.1595 90.5669 23.6364 89.3407 22.5902L90.2657 19.4516C91.0832 20.2799 92.0082 20.9119 92.9332 20.9119C93.7507 20.9119 94.1594 20.2799 94.1594 19.3426C94.1594 18.4054 93.7507 17.6643 92.0942 15.7027C90.3517 13.6103 89.5128 12.15 89.5128 10.2756C89.5128 7.76904 91.0616 5.3715 93.5356 5.3715C94.8693 5.3715 95.6868 5.67664 96.7194 6.52668L95.6868 9.66528C94.8693 8.94602 94.353 8.61908 93.6216 8.61908C92.9117 8.61908 92.3954 9.14218 92.3954 10.0794C92.3954 10.9076 92.8041 11.5397 94.2455 13.3052C96.2031 15.7027 96.913 17.163 96.913 19.1465C97.0636 21.8709 95.7298 24.1595 93.1483 24.1595ZM98.5049 23.8544V5.58946H101.495V23.8326H98.5049V23.8544ZM109.412 23.8544L108.788 20.8247H106.12L105.496 23.8544H102.614L106.314 5.61126H108.573L112.165 23.8544H109.412ZM107.454 12.4769L106.637 17.7951H108.293L107.454 12.4769ZM116.726 24.1595C115.5 24.1595 114.144 23.6364 112.918 22.5902L113.843 19.4516C114.661 20.2799 115.586 20.9119 116.511 20.9119C117.328 20.9119 117.737 20.2799 117.737 19.3426C117.737 18.4054 117.328 17.6643 115.672 15.7027C113.929 13.6103 113.09 12.15 113.09 10.2756C113.09 7.76904 114.639 5.3715 117.113 5.3715C118.447 5.3715 119.264 5.67664 120.297 6.52668L119.372 9.66528C118.554 8.94602 118.038 8.61908 117.307 8.61908C116.597 8.61908 116.08 9.14218 116.08 10.0794C116.08 10.9076 116.489 11.5397 117.931 13.3052C119.888 15.7027 120.598 17.163 120.598 19.1465C120.727 21.8709 119.393 24.1595 116.726 24.1595ZM126.708 8.83704V23.8544H123.717V8.83704H121.351V5.58946H129.074V8.81524H126.708V8.83704Z" fill="#A8A8AF"/>
</svg>
